<mxfile host="app.diagrams.net" modified="2022-05-16T14:07:15.098Z" agent="5.0 (Macintosh; Intel Mac OS X 10_15_7) AppleWebKit/537.36 (KHTML, like Gecko) Chrome/101.0.4951.64 Safari/537.36  " etag="6xysTSI8p2BrYm7zz-Xc" version="18.0.2" type="github">
  <diagram id="prtHgNgQTEPvFCAcTncT" name="Page-1">
    <mxGraphModel dx="1554" dy="797" grid="1" gridSize="10" guides="1" tooltips="1" connect="1" arrows="1" fold="1" page="1" pageScale="1" pageWidth="827" pageHeight="1169" math="0" shadow="0">
      <root>
        <mxCell id="0" />
        <mxCell id="1" parent="0" />
        <mxCell id="dNxyNK7c78bLwvsdeMH5-19" value="Authenticate for NFT" style="swimlane;html=1;childLayout=stackLayout;resizeParent=1;resizeParentMax=0;horizontal=0;startSize=20;horizontalStack=0;" parent="1" vertex="1">
          <mxGeometry width="701" height="600" as="geometry" />
        </mxCell>
        <mxCell id="LqSG0E5mVGwXw703kI9X-95" style="edgeStyle=orthogonalEdgeStyle;rounded=0;orthogonalLoop=1;jettySize=auto;html=1;fontSize=7;exitX=0.5;exitY=1;exitDx=0;exitDy=0;entryX=0.5;entryY=0;entryDx=0;entryDy=0;" parent="dNxyNK7c78bLwvsdeMH5-19" source="LqSG0E5mVGwXw703kI9X-62" target="LqSG0E5mVGwXw703kI9X-93" edge="1">
          <mxGeometry relative="1" as="geometry">
            <mxPoint x="116" y="550" as="sourcePoint" />
            <mxPoint x="116" y="370" as="targetPoint" />
            <Array as="points">
              <mxPoint x="86" y="370" />
              <mxPoint x="86" y="370" />
            </Array>
          </mxGeometry>
        </mxCell>
        <mxCell id="LqSG0E5mVGwXw703kI9X-96" value="&lt;font style=&quot;font-size: 9px&quot;&gt;Forward&amp;nbsp;&lt;/font&gt;" style="edgeLabel;html=1;align=center;verticalAlign=middle;resizable=0;points=[];fontSize=7;rotation=0;" parent="LqSG0E5mVGwXw703kI9X-95" vertex="1" connectable="0">
          <mxGeometry x="-0.332" y="-1" relative="1" as="geometry">
            <mxPoint x="1" y="-7" as="offset" />
          </mxGeometry>
        </mxCell>
        <mxCell id="GkfGt3xmt1NCqEzGQs3M-4" style="edgeStyle=orthogonalEdgeStyle;rounded=0;orthogonalLoop=1;jettySize=auto;html=1;entryX=0.5;entryY=0;entryDx=0;entryDy=0;fontSize=8;exitX=0.5;exitY=1;exitDx=0;exitDy=0;" parent="dNxyNK7c78bLwvsdeMH5-19" source="LqSG0E5mVGwXw703kI9X-58" target="LqSG0E5mVGwXw703kI9X-62" edge="1">
          <mxGeometry relative="1" as="geometry">
            <Array as="points">
              <mxPoint x="357" y="260" />
              <mxPoint x="86" y="260" />
            </Array>
            <mxPoint x="361" y="220" as="sourcePoint" />
          </mxGeometry>
        </mxCell>
        <mxCell id="GkfGt3xmt1NCqEzGQs3M-14" style="edgeStyle=orthogonalEdgeStyle;rounded=0;orthogonalLoop=1;jettySize=auto;html=1;exitX=0.75;exitY=0;exitDx=0;exitDy=0;entryX=0.75;entryY=1;entryDx=0;entryDy=0;fontSize=11;" parent="dNxyNK7c78bLwvsdeMH5-19" source="LqSG0E5mVGwXw703kI9X-103" target="LqSG0E5mVGwXw703kI9X-99" edge="1">
          <mxGeometry relative="1" as="geometry" />
        </mxCell>
        <mxCell id="LqSG0E5mVGwXw703kI9X-65" value="Auth Contract" style="swimlane;html=1;startSize=20;horizontal=0;" parent="dNxyNK7c78bLwvsdeMH5-19" vertex="1">
          <mxGeometry x="20" width="681" height="120" as="geometry">
            <mxRectangle x="20" width="630" height="20" as="alternateBounds" />
          </mxGeometry>
        </mxCell>
        <mxCell id="LqSG0E5mVGwXw703kI9X-77" value="&lt;font style=&quot;font-size: 10px&quot;&gt;WL&lt;/font&gt;" style="rhombus;whiteSpace=wrap;html=1;fontFamily=Helvetica;fontSize=12;fontColor=#000000;align=center;" parent="LqSG0E5mVGwXw703kI9X-65" vertex="1">
          <mxGeometry x="476" y="35" width="40" height="40" as="geometry" />
        </mxCell>
        <mxCell id="GkfGt3xmt1NCqEzGQs3M-75" style="edgeStyle=orthogonalEdgeStyle;rounded=0;orthogonalLoop=1;jettySize=auto;html=1;fontSize=7;strokeColor=default;entryX=1;entryY=0.5;entryDx=0;entryDy=0;exitX=0;exitY=0.5;exitDx=0;exitDy=0;" parent="LqSG0E5mVGwXw703kI9X-65" source="GkfGt3xmt1NCqEzGQs3M-72" target="GkfGt3xmt1NCqEzGQs3M-79" edge="1">
          <mxGeometry relative="1" as="geometry">
            <mxPoint x="461" y="90" as="sourcePoint" />
            <mxPoint x="371" y="80" as="targetPoint" />
            <Array as="points">
              <mxPoint x="240" y="55" />
              <mxPoint x="240" y="55" />
            </Array>
          </mxGeometry>
        </mxCell>
        <mxCell id="GkfGt3xmt1NCqEzGQs3M-72" value="&lt;span style=&quot;font-size: 10px&quot;&gt;addUser&lt;/span&gt;" style="rounded=1;html=1;absoluteArcSize=1;arcSize=14;strokeWidth=2;fontSize=7;whiteSpace=wrap;" parent="LqSG0E5mVGwXw703kI9X-65" vertex="1">
          <mxGeometry x="281" y="35" width="70" height="40" as="geometry" />
        </mxCell>
        <mxCell id="GkfGt3xmt1NCqEzGQs3M-79" value="&lt;span style=&quot;font-size: 10px&quot;&gt;Add &lt;i&gt;HashedGovID&lt;/i&gt;&lt;br&gt;to storage&lt;br&gt;&lt;/span&gt;" style="rounded=1;html=1;absoluteArcSize=1;arcSize=14;strokeWidth=2;fontSize=7;whiteSpace=wrap;" parent="LqSG0E5mVGwXw703kI9X-65" vertex="1">
          <mxGeometry x="120" y="35" width="70" height="40" as="geometry" />
        </mxCell>
        <mxCell id="GkfGt3xmt1NCqEzGQs3M-102" value="&lt;font style=&quot;font-size: 10px&quot;&gt;Issue identity certificate&lt;/font&gt;" style="rounded=1;html=1;absoluteArcSize=1;arcSize=14;strokeWidth=2;fontSize=7;whiteSpace=wrap;" parent="LqSG0E5mVGwXw703kI9X-65" vertex="1">
          <mxGeometry x="591.5" y="35" width="70" height="40" as="geometry" />
        </mxCell>
        <mxCell id="LqSG0E5mVGwXw703kI9X-26" style="edgeStyle=orthogonalEdgeStyle;rounded=0;orthogonalLoop=1;jettySize=auto;html=1;fontSize=7;exitX=0.5;exitY=0;exitDx=0;exitDy=0;entryX=0.5;entryY=0;entryDx=0;entryDy=0;" parent="LqSG0E5mVGwXw703kI9X-65" source="LqSG0E5mVGwXw703kI9X-77" target="GkfGt3xmt1NCqEzGQs3M-102" edge="1">
          <mxGeometry relative="1" as="geometry">
            <mxPoint x="670" y="58.40999999999997" as="sourcePoint" />
            <mxPoint x="751" y="90" as="targetPoint" />
            <Array as="points">
              <mxPoint x="496" y="20" />
              <mxPoint x="627" y="20" />
            </Array>
          </mxGeometry>
        </mxCell>
        <mxCell id="LqSG0E5mVGwXw703kI9X-29" value="&lt;font style=&quot;font-size: 9px&quot;&gt;[true]&lt;/font&gt;" style="edgeLabel;html=1;align=center;verticalAlign=middle;resizable=0;points=[];fontSize=7;" parent="LqSG0E5mVGwXw703kI9X-26" vertex="1" connectable="0">
          <mxGeometry x="-0.3776" y="-1" relative="1" as="geometry">
            <mxPoint x="9" y="9" as="offset" />
          </mxGeometry>
        </mxCell>
        <mxCell id="GkfGt3xmt1NCqEzGQs3M-73" style="edgeStyle=orthogonalEdgeStyle;rounded=0;orthogonalLoop=1;jettySize=auto;html=1;fontSize=7;strokeColor=default;exitX=0.5;exitY=0;exitDx=0;exitDy=0;entryX=1;entryY=0.5;entryDx=0;entryDy=0;" parent="dNxyNK7c78bLwvsdeMH5-19" source="GkfGt3xmt1NCqEzGQs3M-57" target="GkfGt3xmt1NCqEzGQs3M-72" edge="1">
          <mxGeometry relative="1" as="geometry">
            <mxPoint x="441" y="70" as="targetPoint" />
            <Array as="points">
              <mxPoint x="636" y="240" />
              <mxPoint x="441" y="240" />
              <mxPoint x="441" y="55" />
            </Array>
          </mxGeometry>
        </mxCell>
        <mxCell id="dNxyNK7c78bLwvsdeMH5-20" value="Website/User" style="swimlane;html=1;startSize=20;horizontal=0;" parent="dNxyNK7c78bLwvsdeMH5-19" vertex="1">
          <mxGeometry x="20" y="120" width="681" height="120" as="geometry">
            <mxRectangle x="20" width="630" height="20" as="alternateBounds" />
          </mxGeometry>
        </mxCell>
        <mxCell id="dNxyNK7c78bLwvsdeMH5-23" value="" style="ellipse;whiteSpace=wrap;html=1;fillColor=#000000;" parent="dNxyNK7c78bLwvsdeMH5-20" vertex="1">
          <mxGeometry x="40" y="40" width="40" height="40" as="geometry" />
        </mxCell>
        <mxCell id="GkfGt3xmt1NCqEzGQs3M-108" style="edgeStyle=orthogonalEdgeStyle;rounded=0;orthogonalLoop=1;jettySize=auto;html=1;exitX=1;exitY=0.5;exitDx=0;exitDy=0;entryX=0;entryY=0.5;entryDx=0;entryDy=0;fontSize=10;strokeColor=default;" parent="dNxyNK7c78bLwvsdeMH5-20" source="LqSG0E5mVGwXw703kI9X-48" target="LqSG0E5mVGwXw703kI9X-60" edge="1">
          <mxGeometry relative="1" as="geometry" />
        </mxCell>
        <mxCell id="LqSG0E5mVGwXw703kI9X-48" value="&lt;font style=&quot;font-size: 10px&quot;&gt;Connect&lt;br&gt;Web3&lt;br&gt;(MetaMask)&lt;/font&gt;" style="rounded=1;html=1;absoluteArcSize=1;arcSize=14;strokeWidth=2;fontSize=7;whiteSpace=wrap;" parent="dNxyNK7c78bLwvsdeMH5-20" vertex="1">
          <mxGeometry x="121" y="40" width="70" height="40" as="geometry" />
        </mxCell>
        <mxCell id="dNxyNK7c78bLwvsdeMH5-25" value="" style="edgeStyle=orthogonalEdgeStyle;rounded=0;orthogonalLoop=1;jettySize=auto;html=1;entryX=0;entryY=0.5;entryDx=0;entryDy=0;" parent="dNxyNK7c78bLwvsdeMH5-20" source="dNxyNK7c78bLwvsdeMH5-23" target="LqSG0E5mVGwXw703kI9X-48" edge="1">
          <mxGeometry relative="1" as="geometry" />
        </mxCell>
        <mxCell id="LqSG0E5mVGwXw703kI9X-61" style="edgeStyle=orthogonalEdgeStyle;rounded=0;orthogonalLoop=1;jettySize=auto;html=1;exitX=1;exitY=0.5;exitDx=0;exitDy=0;fontSize=12;entryX=0;entryY=0.5;entryDx=0;entryDy=0;" parent="dNxyNK7c78bLwvsdeMH5-20" source="LqSG0E5mVGwXw703kI9X-60" target="LqSG0E5mVGwXw703kI9X-58" edge="1">
          <mxGeometry relative="1" as="geometry">
            <mxPoint x="546" y="60" as="targetPoint" />
          </mxGeometry>
        </mxCell>
        <mxCell id="LqSG0E5mVGwXw703kI9X-58" value="&lt;font style=&quot;font-size: 10px&quot;&gt;Connect&lt;br&gt;Bank-ID&lt;/font&gt;" style="rounded=1;html=1;absoluteArcSize=1;arcSize=14;strokeWidth=2;fontSize=7;whiteSpace=wrap;" parent="dNxyNK7c78bLwvsdeMH5-20" vertex="1">
          <mxGeometry x="304" y="40" width="65" height="40" as="geometry" />
        </mxCell>
        <mxCell id="LqSG0E5mVGwXw703kI9X-60" value="&lt;font style=&quot;font-size: 10px&quot;&gt;personal nbr&lt;/font&gt;" style="html=1;strokeWidth=2;shape=manualInput;whiteSpace=wrap;rounded=1;size=13;arcSize=11;fontSize=7;" parent="dNxyNK7c78bLwvsdeMH5-20" vertex="1">
          <mxGeometry x="211" y="40" width="70" height="40" as="geometry" />
        </mxCell>
        <mxCell id="LqSG0E5mVGwXw703kI9X-151" value="&lt;font style=&quot;font-size: 10px&quot;&gt;Initiate issuance of certificate&lt;/font&gt;" style="rounded=1;html=1;absoluteArcSize=1;arcSize=14;strokeWidth=2;fontSize=7;whiteSpace=wrap;" parent="dNxyNK7c78bLwvsdeMH5-20" vertex="1">
          <mxGeometry x="461" y="40" width="70" height="40" as="geometry" />
        </mxCell>
        <mxCell id="GkfGt3xmt1NCqEzGQs3M-107" value="" style="ellipse;html=1;shape=endState;fillColor=#000000;strokeColor=#ff0000;fontSize=9;" parent="dNxyNK7c78bLwvsdeMH5-20" vertex="1">
          <mxGeometry x="607" y="40" width="39" height="40" as="geometry" />
        </mxCell>
        <mxCell id="dNxyNK7c78bLwvsdeMH5-22" value="API" style="swimlane;html=1;startSize=20;horizontal=0;" parent="dNxyNK7c78bLwvsdeMH5-19" vertex="1">
          <mxGeometry x="20" y="240" width="681" height="120" as="geometry">
            <mxRectangle x="20" y="240" width="430" height="20" as="alternateBounds" />
          </mxGeometry>
        </mxCell>
        <mxCell id="LqSG0E5mVGwXw703kI9X-62" value="&lt;font style=&quot;font-size: 10px&quot;&gt;Authenticate&amp;nbsp;&lt;/font&gt;" style="rounded=1;html=1;absoluteArcSize=1;arcSize=14;strokeWidth=2;fontSize=7;whiteSpace=wrap;" parent="dNxyNK7c78bLwvsdeMH5-22" vertex="1">
          <mxGeometry x="31" y="40" width="70" height="40" as="geometry" />
        </mxCell>
        <mxCell id="GkfGt3xmt1NCqEzGQs3M-58" style="edgeStyle=orthogonalEdgeStyle;rounded=0;orthogonalLoop=1;jettySize=auto;html=1;fontSize=7;" parent="dNxyNK7c78bLwvsdeMH5-22" source="LqSG0E5mVGwXw703kI9X-122" target="GkfGt3xmt1NCqEzGQs3M-57" edge="1">
          <mxGeometry relative="1" as="geometry" />
        </mxCell>
        <mxCell id="LqSG0E5mVGwXw703kI9X-122" value="&lt;font style=&quot;font-size: 10px&quot;&gt;Encrypt personal data&lt;br&gt;(SHA512)&lt;br&gt;&lt;/font&gt;" style="rounded=1;html=1;absoluteArcSize=1;arcSize=14;strokeWidth=2;fontSize=7;whiteSpace=wrap;" parent="dNxyNK7c78bLwvsdeMH5-22" vertex="1">
          <mxGeometry x="481" y="40" width="70" height="40" as="geometry" />
        </mxCell>
        <mxCell id="GkfGt3xmt1NCqEzGQs3M-25" value="&lt;font style=&quot;font-size: 10px&quot;&gt;Forward order reference&lt;/font&gt;" style="rounded=1;html=1;absoluteArcSize=1;arcSize=14;strokeWidth=2;fontSize=7;whiteSpace=wrap;" parent="dNxyNK7c78bLwvsdeMH5-22" vertex="1">
          <mxGeometry x="211" y="40" width="70" height="40" as="geometry" />
        </mxCell>
        <mxCell id="GkfGt3xmt1NCqEzGQs3M-112" value="&lt;font style=&quot;font-size: 9px&quot;&gt;[cancel]&lt;/font&gt;" style="edgeStyle=orthogonalEdgeStyle;rounded=0;orthogonalLoop=1;jettySize=auto;html=1;fontSize=10;strokeColor=default;exitX=0;exitY=0.5;exitDx=0;exitDy=0;entryX=1;entryY=0.5;entryDx=0;entryDy=0;" parent="dNxyNK7c78bLwvsdeMH5-22" source="GkfGt3xmt1NCqEzGQs3M-33" target="GkfGt3xmt1NCqEzGQs3M-111" edge="1">
          <mxGeometry x="-0.4444" y="-30" relative="1" as="geometry">
            <mxPoint as="offset" />
            <mxPoint x="411" y="62" as="sourcePoint" />
            <mxPoint x="391" y="80" as="targetPoint" />
            <Array as="points" />
          </mxGeometry>
        </mxCell>
        <mxCell id="GkfGt3xmt1NCqEzGQs3M-33" value="&lt;font style=&quot;font-size: 10px&quot;&gt;Status&lt;/font&gt;" style="rhombus;whiteSpace=wrap;html=1;fontFamily=Helvetica;fontSize=12;fontColor=#000000;align=center;" parent="dNxyNK7c78bLwvsdeMH5-22" vertex="1">
          <mxGeometry x="411" y="40" width="40" height="40" as="geometry" />
        </mxCell>
        <mxCell id="GkfGt3xmt1NCqEzGQs3M-38" style="edgeStyle=orthogonalEdgeStyle;rounded=0;orthogonalLoop=1;jettySize=auto;html=1;exitX=1;exitY=0.5;exitDx=0;exitDy=0;entryX=0;entryY=0.5;entryDx=0;entryDy=0;fontSize=11;" parent="dNxyNK7c78bLwvsdeMH5-22" source="GkfGt3xmt1NCqEzGQs3M-35" target="GkfGt3xmt1NCqEzGQs3M-25" edge="1">
          <mxGeometry relative="1" as="geometry" />
        </mxCell>
        <mxCell id="GkfGt3xmt1NCqEzGQs3M-35" value="&lt;font style=&quot;font-size: 10px&quot;&gt;Get wallet address and ord. reference&lt;/font&gt;" style="rounded=1;html=1;absoluteArcSize=1;arcSize=14;strokeWidth=2;fontSize=7;whiteSpace=wrap;" parent="dNxyNK7c78bLwvsdeMH5-22" vertex="1">
          <mxGeometry x="121" y="40" width="70" height="40" as="geometry" />
        </mxCell>
        <mxCell id="GkfGt3xmt1NCqEzGQs3M-57" value="&lt;font style=&quot;font-size: 10px&quot;&gt;WhiteList-Handler&lt;/font&gt;" style="rounded=1;html=1;absoluteArcSize=1;arcSize=14;strokeWidth=2;fontSize=7;whiteSpace=wrap;" parent="dNxyNK7c78bLwvsdeMH5-22" vertex="1">
          <mxGeometry x="581" y="40" width="70" height="40" as="geometry" />
        </mxCell>
        <mxCell id="GkfGt3xmt1NCqEzGQs3M-111" value="&lt;span style=&quot;font-size: 10px&quot;&gt;Throw internal server error&lt;/span&gt;" style="rounded=1;html=1;absoluteArcSize=1;arcSize=14;strokeWidth=2;fontSize=7;whiteSpace=wrap;" parent="dNxyNK7c78bLwvsdeMH5-22" vertex="1">
          <mxGeometry x="305" y="40" width="70" height="40" as="geometry" />
        </mxCell>
        <mxCell id="GkfGt3xmt1NCqEzGQs3M-54" style="edgeStyle=orthogonalEdgeStyle;rounded=0;orthogonalLoop=1;jettySize=auto;html=1;entryX=0;entryY=0.5;entryDx=0;entryDy=0;fontSize=11;exitX=1;exitY=0.5;exitDx=0;exitDy=0;" parent="dNxyNK7c78bLwvsdeMH5-22" source="GkfGt3xmt1NCqEzGQs3M-33" target="LqSG0E5mVGwXw703kI9X-122" edge="1">
          <mxGeometry relative="1" as="geometry">
            <mxPoint x="461" y="90" as="sourcePoint" />
            <mxPoint x="466" y="59.5" as="targetPoint" />
            <Array as="points" />
          </mxGeometry>
        </mxCell>
        <mxCell id="GkfGt3xmt1NCqEzGQs3M-55" value="&lt;font style=&quot;font-size: 9px&quot;&gt;&lt;span&gt;[c&lt;/span&gt;&lt;font style=&quot;font-size: 9px&quot;&gt;omplete&lt;/font&gt;&lt;span&gt;]&lt;/span&gt;&lt;/font&gt;" style="edgeLabel;html=1;align=center;verticalAlign=middle;resizable=0;points=[];fontSize=11;" parent="GkfGt3xmt1NCqEzGQs3M-54" vertex="1" connectable="0">
          <mxGeometry x="-0.3913" y="2" relative="1" as="geometry">
            <mxPoint x="-4" y="-28" as="offset" />
          </mxGeometry>
        </mxCell>
        <mxCell id="LqSG0E5mVGwXw703kI9X-17" value="Bank-ID API" style="swimlane;html=1;startSize=20;horizontal=0;" parent="dNxyNK7c78bLwvsdeMH5-19" vertex="1">
          <mxGeometry x="20" y="360" width="681" height="120" as="geometry">
            <mxRectangle x="20" y="240" width="430" height="20" as="alternateBounds" />
          </mxGeometry>
        </mxCell>
        <mxCell id="GkfGt3xmt1NCqEzGQs3M-27" style="edgeStyle=orthogonalEdgeStyle;rounded=0;orthogonalLoop=1;jettySize=auto;html=1;entryX=0;entryY=0.5;entryDx=0;entryDy=0;fontSize=11;exitX=1;exitY=0.5;exitDx=0;exitDy=0;" parent="LqSG0E5mVGwXw703kI9X-17" target="GkfGt3xmt1NCqEzGQs3M-26" edge="1" source="LqSG0E5mVGwXw703kI9X-93">
          <mxGeometry relative="1" as="geometry">
            <mxPoint x="121" y="80" as="sourcePoint" />
          </mxGeometry>
        </mxCell>
        <mxCell id="LqSG0E5mVGwXw703kI9X-93" value="&lt;font style=&quot;font-size: 10px&quot;&gt;auth&lt;/font&gt;" style="rounded=1;html=1;absoluteArcSize=1;arcSize=14;strokeWidth=2;fontSize=7;whiteSpace=wrap;" parent="LqSG0E5mVGwXw703kI9X-17" vertex="1">
          <mxGeometry x="31" y="40" width="70" height="40" as="geometry" />
        </mxCell>
        <mxCell id="LqSG0E5mVGwXw703kI9X-105" value="&lt;font style=&quot;font-size: 10px&quot;&gt;&amp;nbsp;Sign-in process status&lt;/font&gt;" style="rounded=1;html=1;absoluteArcSize=1;arcSize=14;strokeWidth=2;fontSize=7;whiteSpace=wrap;" parent="LqSG0E5mVGwXw703kI9X-17" vertex="1">
          <mxGeometry x="305" y="40" width="70" height="40" as="geometry" />
        </mxCell>
        <mxCell id="GkfGt3xmt1NCqEzGQs3M-17" style="edgeStyle=orthogonalEdgeStyle;rounded=0;orthogonalLoop=1;jettySize=auto;html=1;exitX=1;exitY=0.5;exitDx=0;exitDy=0;entryX=0;entryY=0.5;entryDx=0;entryDy=0;fontSize=10;" parent="LqSG0E5mVGwXw703kI9X-17" source="LqSG0E5mVGwXw703kI9X-99" target="LqSG0E5mVGwXw703kI9X-105" edge="1">
          <mxGeometry relative="1" as="geometry">
            <mxPoint x="370" y="60" as="targetPoint" />
          </mxGeometry>
        </mxCell>
        <mxCell id="LqSG0E5mVGwXw703kI9X-99" value="&lt;font style=&quot;font-size: 10px&quot;&gt;Initiate sign-in process&lt;/font&gt;" style="rounded=1;html=1;absoluteArcSize=1;arcSize=14;strokeWidth=2;fontSize=7;whiteSpace=wrap;" parent="LqSG0E5mVGwXw703kI9X-17" vertex="1">
          <mxGeometry x="211" y="40" width="70" height="40" as="geometry" />
        </mxCell>
        <mxCell id="vc1MbTpHht_Eu3Z9WTrN-12" style="edgeStyle=orthogonalEdgeStyle;rounded=0;orthogonalLoop=1;jettySize=auto;html=1;exitX=1;exitY=0.5;exitDx=0;exitDy=0;entryX=0;entryY=0.5;entryDx=0;entryDy=0;" parent="LqSG0E5mVGwXw703kI9X-17" source="GkfGt3xmt1NCqEzGQs3M-26" target="LqSG0E5mVGwXw703kI9X-99" edge="1">
          <mxGeometry relative="1" as="geometry" />
        </mxCell>
        <mxCell id="GkfGt3xmt1NCqEzGQs3M-26" value="&lt;font style=&quot;font-size: 10px&quot;&gt;Generate order reference&lt;/font&gt;" style="rounded=1;html=1;absoluteArcSize=1;arcSize=14;strokeWidth=2;fontSize=7;whiteSpace=wrap;" parent="LqSG0E5mVGwXw703kI9X-17" vertex="1">
          <mxGeometry x="121" y="40" width="70" height="40" as="geometry" />
        </mxCell>
        <mxCell id="GkfGt3xmt1NCqEzGQs3M-45" value="&lt;font style=&quot;font-size: 10px&quot;&gt;collect&lt;/font&gt;" style="rounded=1;html=1;absoluteArcSize=1;arcSize=14;strokeWidth=2;fontSize=7;whiteSpace=wrap;" parent="LqSG0E5mVGwXw703kI9X-17" vertex="1">
          <mxGeometry x="396" y="40" width="70" height="40" as="geometry" />
        </mxCell>
        <mxCell id="LqSG0E5mVGwXw703kI9X-112" value="User Bank-ID App&amp;nbsp;" style="swimlane;html=1;startSize=20;horizontal=0;" parent="dNxyNK7c78bLwvsdeMH5-19" vertex="1">
          <mxGeometry x="20" y="480" width="681" height="120" as="geometry">
            <mxRectangle x="20" y="240" width="430" height="20" as="alternateBounds" />
          </mxGeometry>
        </mxCell>
        <mxCell id="LqSG0E5mVGwXw703kI9X-103" value="&lt;font style=&quot;font-size: 10px&quot;&gt;Sign initiated process&lt;/font&gt;" style="rounded=1;html=1;absoluteArcSize=1;arcSize=14;strokeWidth=2;fontSize=7;whiteSpace=wrap;" parent="LqSG0E5mVGwXw703kI9X-112" vertex="1">
          <mxGeometry x="211" y="40" width="70" height="40" as="geometry" />
        </mxCell>
        <mxCell id="vc1MbTpHht_Eu3Z9WTrN-7" value="" style="rounded=0;whiteSpace=wrap;html=1;strokeWidth=3;fillColor=#000000;" parent="LqSG0E5mVGwXw703kI9X-112" vertex="1">
          <mxGeometry x="461" y="4.999999999999991" width="194" height="110" as="geometry" />
        </mxCell>
        <mxCell id="vc1MbTpHht_Eu3Z9WTrN-8" value="" style="shape=image;verticalLabelPosition=bottom;labelBackgroundColor=default;verticalAlign=top;aspect=fixed;imageAspect=0;image=data:image/png,iVBORw0KGgoAAAANSUhEUgAAAgYAAAEyCAYAAACBPBiGAAAK2GlDQ1BJQ0MgUHJvZmlsZQAASImVlwdUU8kax+fe9EZJINIJvSOdAFJCD0WQDqISkkBCiSEhqIidxRVcCyoiWNFVEQXLCshaEAu2RbFgd4MsAuq6WLChZm/gEXb3nffeed85k/mdLzNfmXvnnP8FgBLOEYvzYA0A8kWFkriwQEZKahoD9wygAQaQAA5YcLhSMSs2NgogNjH/3d73AEg533JQxvr3//+rUXl8KRcAKB3hTJ6Um49wOzKec8WSQgBQBxG/2bxCsZJvIKwlQQpE+DclZ4/zRyVnjjGaPLYmIS4IYQYAeDKHI8kGgGyP+BlF3GwkDlnZg5OIJxQhXIKwH1fA4SF8EmH7/Py5Sh5E2BpZLwaAgpwOYGb+JWb23+JnquJzONkqHu9rzPDBQqk4j7Pg/zya/235ebKJHJbIIAsk4XHKfMj53cudG6liUeb0mAkW8sZrUrJAFp44wVxpUNoE8zjBkaq9edOjJjhLGMpWxSlkJ0wwXxoSP8GSuXGqXFmSINYEcyRjeYkIy2W5iSq/gM9WxS8WJCRPcJEwafoES3PjIyfXBKn8Elmcqn6+KCxwMm+oqvd86V/6FbJVewsFCeGq3jmT9fNFrMmY0hRVbTx+cMjkmkTVenFhoCqXOC9WtZ6fF6byS4viVXsLkZdzcm+s6gxzOBGxEwyEIBpwAJehPkEAFPLnFyobCZorXiARZgsKGSzktvEZbBHX0Z7h4uTiAoDy7o6/Dm/pY3cSol+Z9K2sA8C/SqFQnJj0hSP35Ugq8lh6Jn1W1gCoUwG4tI0rkxSN+9DKHwzy9NSBFtAFRsAMWAMH4AI8gA8IACEgAsSABJAKZiO1CkA+kIB5oAQsA2WgAqwDm0AN2AF2g/3gEDgKWsBJcBZcBFfBDXAHPARy0A9egGHwHoxCEISDKBAN0oWMIQvIDnKBmJAfFAJFQXFQKpQBZUMiSAaVQCugCqgSqoF2QfXQEegEdBa6DHVD96FeaAh6A32GUTAZ1oINYUt4KsyEWXAknADPgrPhArgYLoXXwNVwHXwQbobPwlfhO7AcfgGPoACKhKKjTFAOKCYqCBWDSkNloSSoxahyVBWqDtWIakN1om6h5KiXqE9oLJqGZqAd0D7ocHQimosuQC9Gr0bXoPejm9Hn0bfQvehh9DcMBWOAscN4Y9iYFEw2Zh6mDFOF2Ys5jrmAuYPpx7zHYrF0rBXWExuOTcXmYBdiV2O3YZuw7dhubB92BIfD6eLscL64GBwHV4grw23BHcSdwd3E9eM+4kl4Y7wLPhSfhhfhl+Or8Afwp/E38QP4UYIGwYLgTYgh8AgLCGsJewhthOuEfsIoUZNoRfQlJhBziMuI1cRG4gXiI+JbEolkSvIizSAJSUtJ1aTDpEukXtInMpVsSw4ip5Nl5DXkfeR28n3yWwqFYkkJoKRRCilrKPWUc5QnlI9qNDVHNbYaT22JWq1as9pNtVfqBHULdZb6bPVi9Sr1Y+rX1V9qEDQsNYI0OBqLNWo1Tmjc1RjRpGk6a8Zo5muu1jygeVlzkIqjWlJDqDxqKXU39Ry1j4aimdGCaFzaCtoe2gVavxZWy0qLrZWjVaF1SKtLa1ibqu2mnaQ9X7tW+5S2nI6iW9LZ9Dz6WvpReg/98xTDKawp/CmrpjROuTnlg46+ToAOX6dcp0nnjs5nXYZuiG6u7nrdFt3Hemg9W70ZevP0tutd0Hupr6Xvo8/VL9c/qv/AADawNYgzWGiw2+CawYihkWGYodhwi+E5w5dGdKMAoxyjjUanjYaMacZ+xkLjjcZnjJ8ztBksRh6jmnGeMWxiYBJuIjPZZdJlMmpqZZpouty0yfSxGdGMaZZlttGsw2zY3Ng82rzEvMH8gQXBgmkhsNhs0WnxwdLKMtlypWWL5aCVjhXbqtiqweqRNcXa37rAus76tg3WhmmTa7PN5oYtbOtuK7Cttb1uB9t52Antttl122PsvexF9nX2dx3IDiyHIocGh15HumOU43LHFsdXU82npk1dP7Vz6jcnd6c8pz1OD52pzhHOy53bnN+42LpwXWpdbrtSXENdl7i2ur52s3Pju213u+dOc492X+ne4f7Vw9ND4tHoMeRp7pnhudXzLlOLGctczbzkhfEK9FriddLrk7eHd6H3Ue8/fBx8cn0O+AxOs5rGn7ZnWp+vqS/Hd5ev3I/hl+G300/ub+LP8a/zfxpgFsAL2BswwLJh5bAOsl4FOgVKAo8HfgjyDloU1B6MCg4LLg/uCqGGJIbUhDwJNQ3NDm0IHQ5zD1sY1h6OCY8MXx9+l23I5rLr2cMRnhGLIs5HkiPjI2sin0bZRkmi2qLh6IjoDdGPpltMF01viQEx7JgNMY9jrWILYn+egZ0RO6N2xrM457iSuM54Wvyc+APx7xMCE9YmPEy0TpQldiSpJ6Un1Sd9SA5OrkyWp0xNWZRyNVUvVZjamoZLS0rbmzYyM2Tmppn96e7pZek9s6xmzZ91ebbe7LzZp+aoz+HMOZaByUjOOJDxhRPDqeOMZLIzt2YOc4O4m7kveAG8jbwhvi+/kj+Q5ZtVmTWY7Zu9IXtI4C+oErwUBglrhK9zwnN25HzIjcndl6vIS85rysfnZ+SfEFFFuaLzc43mzp/bLbYTl4nlBd4FmwqGJZGSvVJIOkvaWqiFiKRrMmvZd7LeIr+i2qKP85LmHZuvOV80/9oC2wWrFgwUhxb/uBC9kLuwo8SkZFlJ7yLWol2LocWZizuWmC0pXdK/NGzp/mXEZbnLflnutLxy+bsVySvaSg1Ll5b2fRf2XUOZWpmk7O5Kn5U7vkd/L/y+a5Xrqi2rvpXzyq9UOFVUVXxZzV195QfnH6p/UKzJWtO11mPt9nXYdaJ1Pev91++v1KwsruzbEL2heSNjY/nGd5vmbLpc5Va1YzNxs2yzvDqqunWL+ZZ1W77UCGru1AbWNm012Lpq64dtvG03twdsb9xhuKNix+edwp33doXtaq6zrKvajd1dtPvZnqQ9nT8yf6zfq7e3Yu/XfaJ98v1x+8/Xe9bXHzA4sLYBbpA1DB1MP3jjUPCh1kaHxl1N9KaKw+Cw7PDzIxlHeo5GHu04xjzW+JPFT1uP046XN0PNC5qHWwQt8tbU1u4TESc62nzajv/s+PO+kyYna09pn1p7mni69LTiTPGZkXZx+8uz2Wf7OuZ0PDyXcu72+Rnnuy5EXrh0MfTiuU5W55lLvpdOXva+fOIK80rLVY+rzdfcrx3/xf2X410eXc3XPa+33vC60dY9rfv0Tf+bZ28F37p4m3376p3pd7p7Envu3U2/K7/Huzd4P+/+6wdFD0YfLn2EeVT+WONx1RODJ3W/2vzaJPeQn+oN7r32NP7pwz5u34vfpL996S99RnlWNWA8UD/oMnhyKHToxvOZz/tfiF+Mviz7XfP3ra+sX/30R8Af14ZThvtfS14r3qx+q/t23zu3dx0jsSNP3ue/H/1Q/lH34/5PzE+dn5M/D4zO+4L7Uv3V5mvbt8hvjxT5CoWYI+GMSQEUMuCsLADe7EO0MaIdaIguJ84c19ZjBo1/D4wR+E88rr/HzAOARmRSyiJWOwBHl47LWTVkKCVRQgCAXV1V418mzXJ1GY9FRpQl5qNC8dYQAFwbAF8lCsXoNoXi6x6k2PsAtBeMa3qlYREt3+iaK9y55T7Vdin4h43r/b/0+M8ZKCtwA/+c/wQXBhj0oBitEgAAAIplWElmTU0AKgAAAAgABAEaAAUAAAABAAAAPgEbAAUAAAABAAAARgEoAAMAAAABAAIAAIdpAAQAAAABAAAATgAAAAAAAACQAAAAAQAAAJAAAAABAAOShgAHAAAAEgAAAHigAgAEAAAAAQAAAgagAwAEAAAAAQAAATIAAAAAQVNDSUkAAABTY3JlZW5zaG90jw0xsAAAAAlwSFlzAAAWJQAAFiUBSVIk8AAAAdZpVFh0WE1MOmNvbS5hZG9iZS54bXAAAAAAADx4OnhtcG1ldGEgeG1sbnM6eD0iYWRvYmU6bnM6bWV0YS8iIHg6eG1wdGs9IlhNUCBDb3JlIDYuMC4wIj4KICAgPHJkZjpSREYgeG1sbnM6cmRmPSJodHRwOi8vd3d3LnczLm9yZy8xOTk5LzAyLzIyLXJkZi1zeW50YXgtbnMjIj4KICAgICAgPHJkZjpEZXNjcmlwdGlvbiByZGY6YWJvdXQ9IiIKICAgICAgICAgICAgeG1sbnM6ZXhpZj0iaHR0cDovL25zLmFkb2JlLmNvbS9leGlmLzEuMC8iPgogICAgICAgICA8ZXhpZjpQaXhlbFlEaW1lbnNpb24+MzA2PC9leGlmOlBpeGVsWURpbWVuc2lvbj4KICAgICAgICAgPGV4aWY6UGl4ZWxYRGltZW5zaW9uPjUxODwvZXhpZjpQaXhlbFhEaW1lbnNpb24+CiAgICAgICAgIDxleGlmOlVzZXJDb21tZW50PlNjcmVlbnNob3Q8L2V4aWY6VXNlckNvbW1lbnQ+CiAgICAgIDwvcmRmOkRlc2NyaXB0aW9uPgogICA8L3JkZjpSREY+CjwveDp4bXBtZXRhPgowVyE/AAAAHGlET1QAAAACAAAAAAAAAJkAAAAoAAAAmQAAAJkAABtInHfSYQAAGxRJREFUeAHsnX2wVMWZh0E0XisoXCMraBSQTWJQMLpiESSoiCyB8OnnIvFjtQolohhRIyF+lUtFxRIDhWZXSxE1migoFCYVDBpjjBtd1lVjdjel0c1aweB6YXUjqYrFwnvuj9x57/Q9Z5g5c6fnPPeP+87p06f77ec9M/3rnj49PY8fc/L2Hjv++rQesNP0+OY3rjB73IhjzO7Zq5dZ/kEAAhCAAAQgEC+Bti1bzflf//t/ml10821mt7z/ntn/+cM7ZnsiDIwD/yAAAQhAAAJNTSCzMJg07UybMVh573cNSGvfPk0NhsZBAAIQgAAEINCjh4TCrPNmG45N77xttifCgNsDAhCAAAQgUDwCQWHwb6/+ymYMhh85tHhUaDEEIAABCECg4AReee11IzDn0vlmeyIMCn5H0HwIQAACECg0gU7C4I9//MhmDPbZp6XQYGg8BCAAAQhAoMgEJk07y5rfE2FQ5NuAtkMAAhCAAAQSAruEwfYdf0CBAAQgAAEIQKDYBK6/6WYD0BNhUOwbgdZDAAIQgAAEdhJAGHAfQAACEAgQ+PPHH9uZzZuTHeF8tgH9D/RJHEMgegKPrV5rbWDGIPpQ0gAIQKDWBBAGtSZKeTEQQBjEECV83G0CP37q6bLXDmvfr4MRX1k8JLYT+P2md+3V6TPPL8vkuQ1Plk0nEQIxE9DnJjMGMUcR34MEdIP7DAgDT4TjcgQQBuWokNbsBPS5iTBo9kgXtH2jx04s2/JrF1xp6ePHnVT2PIkQ2EkAYcB9UEQCCIMiRr1AbUYYFCjYOTQVYZADVIpseAIIg4YPEQ5WQwBhUA09rkUYcA8UkQDCoIhRL1CbEQYFCnYOTUUY5ACVIhueAMKg4UOEg9UQaBRh4B9769fvAGvWnr16VdO8XdfqZ1Nb9t7b0vL+zRPfnno93aF2tvbts6vt1bxQOz744EMrxpeLMKiGLtfGSgBhEGvk8DsTAYRBJkwVZ1KHqo1/EAYVI+QCCDQsAYRBw4YGx2pBoLuEgd5Yy+6825rxfltb2eYMOWyQpV8x7xKzw9v3VyibuUOiNiBZ8cDDlurLP/aYL1j63583y+ym9ufxb1x0a4dSevQYN/YEO75+4dUl6TqQAHhiTfK8/u1L79Spslb1Xj3/MjsfEgyhkbh4rLh7uV1/7/0PmV39xDqzauf+ra12fO6s5FfgJk44xY7TZko043BD+17wL2182a7TP5U7feokS5ow/mSz7GMgQtgiENDnF48rFiHaBWwjwgBh0PG2Rxh0pMFrCJQngDAoz4XUJiFQb2Ewb/4CI+dHollx3rLoBss6auSIspdoBH3PfQ+UPR9K1Eje+xWaMdBMwQWz51qRb7z5VqjoLtOXf2exnfczIaEZAxV2+dyL7WXaDIXyq31LFi9SUolVfbO/9nVL18xDSaYyByrXc1NWdj4UCWwzEUAYNFM0aUsnAgiDBEmog0MYdLplShJC3JQJYSAS2GYigDBopmjSlk4E6iUMXnntdat7zqXzO/mwM0EzAUcfNczO/+znvzDrv/O3xB3/nlmf/LqZnlr46KNtduqUSTOUpcTqu/FLLr6wJD1tjUNIGOiDIeSfZgIO+fTBVt+Gp58160f4fs2AnNMIPvTdvfLp+imTvmxJoTUVyr9+3Sp76dcaLFl6l6U/unqNspZYcfjqzDMt/cZFt5hNmylBGJRg5KBJCOj9zxqDJgkozSglgDDoevGjOkS/+FAfDAiDt0pvKHeEMHBAOGwKAnr/IwyaIpw0whOolzC4vn2V+1MbflriwgXtTwWcf87MknQdhEaymmHQWgO9UUMd9dpV37Mi/XP4aTMNIWEw5dSzrTz/XXzab0yE1ljoKQPNAKTNGIS4ae3DiadMFsISq7UJp05Pzqe13+cvKWzHQag9yocwEAlsMxHQ5w3CoJmiSlt2EUAYdP0VBMIgWeQoIbHrxml/gTDwRDguAgGEQRGiXOA21ksYhOpRxztq5HFlo/D8C7+0dD/TcNr0KZY+b+5FZrVvgf8OX4WmjVxDMwDyT18lpI3INZI/+KABqrrEPvmj9XbsV/H7mYa0GQM/w1BSyY6D0AyNb0+19egDMjRTk8bd+80xBGIgoPueGYMYooWPFRMIddi+o6q4YHdBqB51VAiD0p+5rrbDRhi4G5BDCNSQAMKghjApqvEIhDrsWgmDtBH27hKRoNBIPmtHGKov6/VpHXao/LR0zTRorUVaPaGnC1RPaD8Hzy2tntDaDNWT9rQJMwYihW0mAgiDZoombelEAGGQIEEYnN/p3tiZgDAoi4XEghNAGBT8Bmj25ne3MNAq/MGDBlaEetgRQy2/FsWFOnZtwBPa8U+Vhq6vdISt+vpW+OuGvj1pI/m0kbg+uPx3/5W2B2GgOwQLgb8Q0PuLNQZ/YcKrJiKAMEiCiTBgxqCJ3tY0JWcCCIOcAVN89xLIWxiodXnXU+1TCSH//Ag7bc2Edjz0v30gDllttTMGtVpjkNaearln5UE+CDQSAYRBI0UDX2pOINQh1mrxoRzOu55qO6iQfwiD8j/ypLhWy13lYCEQEwGEQUzRwteKCYQ6xFoLg6xT9b4BWvX+4Yf/Z6cGDzrUbEtLi1ntZPj8Cy/a8VULrjPr/4VGvmnXeWGgckP7HqTtFKj6VI7a07dPH0vSbxhUO2OQlXfaDEhae9jgSJHEFokAwqBI0S5gWxEGXQsKhAE7HxbwY4EmpxBAGKQA4nTcBELCYHefFhANv8peI//QryuqA9av96186BEryu94qPL9zn9pe/7rOtWj41D5Oq/82i9B6fpg8Kv+dV7XqT1Ll/+jnfI7Hiq/X/1frxkD1R+aYdB57bMwZvQoS+LXFUUGW0QCev/zVEIRo1+ANiMMSn/UyYdcHTzCYJahQRj4O4TjIhJAGBQx6gVqc0gYVIsg1KGmjUzT6k37zjttMZwvf//WVks6bHCyj4If0Yfaoe/m51/9LbveX+frCR2H1j7Ue8bgjTffMhfPvXBOyNWy6dq3IdT+tP0WyhZKIgQanADCoMEDhHvVEUAYIAx23kEIg+reR1xdLAIIg2LFu3CtrbcwEGC9sR58+AeWpI5J52U1Yh8/bqwljRo5Qqe6tFrTsOrxtZZPawk0wv3S8V+09LEnjTF7x7K7SvLZwY5//lccle6tZipWPPCwnXq/ra0ki2Ymxp74JUs/bsTfmA21p94zBnJW3G5bssySfFzUjnNnnZX4/8XkVzFPn1l+gyRmDEQW20wE9PnFGoNmiipt2UUAYYAw2HUz7HiBMOhIg9cQKE8AYVCeC6kQqCkBfWe/efN7Vu6A/gfWtPy0wvTduh8hh9YApJWnpyS2bN3aLe1J8y/rebVj25/+ZJdo34is15MPAs1IAGHQjFGlTQ1HAGHQcCExhxAGjRkXvOpeAgiD7uVP7RDIREAd2M233WH5taZAF2utwsJr5ivJ7BNrnjR7+9I7S9J1sH7dKnupHQmVjoUABIpLAGFQ3NjT8ogIIAwiChauQiByAgiDyAOI+8UiEForIApaVd/amvw2gV9ToHx6emHJ4kVKwkIAAhAwAggDbgQIREQAYRBRsHAVApESQBhEGjjcLiYBLWJMWzsQoqOdFadOmWhZ9uzVK5SVdAhAoKAEEAYFDTzNjpMAwiDOuOE1BGIigDCIKVr4CgFHoG1Lso/Aiy9tdGdKD7UTIk8flHLhCAIQ6EwAYdCZCSkQiIYAwiCaUOEoBKIhgDCIJlQ4CgEIQAACEMifAMIgf8bUAAEIQAACEIiGAMIgmlDhKAQgAAEIQCB/AgiD/BlTAwQgAAEIQCAaAgiDaEKFoxCAAAQgAIH8CSAM8mdMDRCAAAQgAIFoCCAMogkVjkIAAhCAAATyJ4AwyJ8xNUAAAhCAAASiIYAwiCZUOAoBCEAAAhDInwDCIH/G1AABCEAAAhCIhgDCIJpQ4SgEIAABCEAgfwIIg/wZUwMEIAABCEAgGgIIg2hChaMQgAAEIACB/AkgDPJnTA0QgAAEIACBaAggDKIJFY5CAAIQgAAE8ieAMMifMTVAAAIQgAAEoiGAMIgmVDgKAQhAAAIQyJ8AwiB/xtQAAQhAAAIQiIYAwiCaUOEoBCAAAQhAIH8CCIP8GVMDBCAAAQhAIBoCCINoQoWjEIAABCAAgfwJIAzyZ0wNEIAABCAAgWgIIAyiCRWOQgACEIAABPIngDDInzE1QAACEIAABKIhgDCIJlQ4CgEIQAACEMifAMIgf8bUAAEIQAACEIiGAMIgmlDhKAQgAAEIQCB/AgiD/BlTAwQgAAEIQCAaAgiDaEKFoxCAAAQgAIH8CSAM8mdMDRCAAAQgAIFoCCAMogkVjkIAAhCAAATyJ4AwyJ8xNUAAAhCAAASiIYAwiCZUOAoBCEAAAhDInwDCIH/G1AABCEAAAhCIhgDCIJpQ4SgEIAABCEAgfwIIg/wZUwMEIAABCEAgGgIIg2hChaMQgAAEIACB/AkgDPJnTA0QgAAEIACBaAggDKIJFY5CAAIQgAAE8ieAMMifMTVAAAIQgAAEoiGAMIgmVDgKAQhAAAIQyJ8AwiB/xtQAAQhAAAIQiIYAwiCaUOEoBCAAAQhAIH8CCIP8GVMDBCAAAQhAIBoCCINoQoWjEIAABCAAgfwJIAzyZ0wNEIAABCAAgWgIIAyiCRWOQgACEIAABPIngDDInzE1QAACEIAABKIhgDCIJlQ4CgEIQAACEMifAMIgf8bUAAEIQAACEIiGAMIgmlDhKAQgAAEIQCB/AgiD/BlTAwQgAAEIQCAaAgiDaEKFoxCAAAQgAIH8CSAM8mdMDRCAAAQgAIFoCCAMoglVeUe3b99uJ9b/5BmzJ50w2uxee+1lln8QgAAEIACBSgggDCqh1YB5EQYNGBRcggAEIBAxAYRBxMHb6bqEwZiTJ5a05CtfnmDHl829yGxLy94l5zmAAAQgAAEIlCOAMChHJaI0hEFEwcJVCEAAAhEQQBhEEKSuXAwJA3/Nfvvua0lDP/85s0OGDDG7f2sfs4cf/lmzn/3MX5tt2ZsZBgPBPwhAAAIFI4AwiDzgCIPIA4j7EIAABBqMAMKgwQJSqTtZhUGl5X5q/1a7ZOrkSWanTE7WMCi90vLIDwEIQAACcRBAGMQRp6CXCIMgGk5AAAIQgMBuEEAY7Aa0RrokL2EQamOf/fazU/Mvn2v2xPZ9E0L5SYcABCAAgbgIIAziilcnbxEGnZCQAAEIQAACVRDoJAwWfXtxFcVxaXcR+OGPf9ItVWt/hMkT/9bqnzF9qtlPH3xQt/iTV6W/3/RupqJbWlosX2vf5GmPTBeRqWYE/vzxx1bWygcfMXvPfQ+UlL38O8nnW78DPmXpp888v+T8cxueLDnmAAJFJIAwaJKoIwzyDSTCIF++tSodYVArkpRTZAKdhMH8qxcWmUe0bf/nF/+lW3zfY489rN4Txxxv9ozTZpg9Yujh3eJPXpWOHlu6s2RaPfu3Jk91HHP0cMs6auRxZkcce4zZRptRUIe6efN75l+/fgeY3bNXL7Ox/Hts9Vpz9fald5Z1+doFV1r6sCOHmmXGoCwmEgtOAGHQJDcAwiDfQCIM8uVbq9IRBrUiSTlFJtBJGBQZRoxtr/fiw098IvnVxrlzZhuuaVOSfQ5iZFeJz14YHHvMF+zyvoG1BE9t+GmXxd+y6AY7P2rkiC7z1evkK6+9blXNuXS+2R88dK/ZAf0PrJcLNalnyqlnWznvt7WZveC8WWa/evaZZjUDoq+GmDEwLPyDQAkBhEEJjvgOEAb1iRnCoD6cq60FYVAtQa6HQI8eCIPI74K8hME++ySr68ePG2uETpsxzeyggYdETmz33PfCIOuI+o0337IK1677kdlHV68pcUAj2vPPmVmSXu+De+9/yKrUKv6s7au3n2n1+TjpKYTh7WsKdD0zBiKBhUBnAgiDzkyiSkEY1CdcvsPJ2nEiDOoTH9Xi44QwEBksBLITQBhkZ9WQOasVBr17f9LaNWnCeLPTp00xe/BB/Ruyvd3llO9wsgoD768fmev85XMvtpenTp+spLJWI91X29cEPP/CLy3fli1bzR41/EizY0aPMjvksEFm/b+29vx3LLvLTm3811fM6rt5v4ZixrTELz/y/uijbXbdb954M7G/ecPsz37+C7Nag6GZp6OPGmbpmpGygyr+aW3EqseTpxH82o5QO3Z3HwNx2/D0s+b1q79K1mb89q237XjwoIFmhx2RPPUw9qQxduyfQvF+K39a/PWBrbgPPDSZwUubcZJAXflQsr9D1vrMef4VjoDus547OpjthWt9EzRYYRtzcmWP06npCAOR6NoiDBAGO+8QhEHX7xPONgcBhEHkccwqDPr2SXbimzxpgrV42tSvmP2r9ufVI8eQu/u1EgZy9PqbbraXGuFq34M1jz2oLCVWI0w9NVBysouDULmaefCr8kNF6fn/8eNOKskyb/4CO35p48sl6WkHtXoqQx9gNy66Na1KO692VLqPwfMvvGjXX7Xgukz1KJP433TDNy1JMy4+nprZWXH3cl1a1p574RxL1wyAMj2zPpkx0VMXSpf1M1VZZ6h0PbZYBPS+YsYg0rgjDOoTOIRBsjEQwgBhUJ93HLV0JwGEQXfSr0HdIWEwetRIK/2qKy4z29ratwa1FbeIWguD0AjUr13QjoQXzJ5r8DVS1Ihv6pTkKySNFDUSXXjdP1h+rRkILcJTRCttn/dfI+MV9yQjXn2nrjUI3737PqtKT2VkHSHLv6w2aztCMyb+txLk/ymTkh095Yf8v2LeJZbkZwI8f/FZ9f37VYTZE09JvqJR4vp1q+ylX4Ph/VB5iq9mGuSXypP1Mw1p+XUdtpgEEAaRxx1hUJ8AZu1wsnrjO1ZdhzAQid2zWeOEMEgEXEhI7B59rmoWAgiDyCMpYfD9R1dbSya2P12w7769I29ZY7mftcPJ6nWoY/LCQIvdVqz8nhW9ZWvy9MHCa5IdCjVT4Ov1WwOfNj152mTe3It8VjuutH364NDqeD11ENrJUTMffoTs21vWuQoSs7YjxN/PGPjv5jVSD60Fkauh9vq1FX6NRmhmRzNBWmOi/S+074RmkPxTDX6mQf75diodC4GdBPT+Zo1BpPcDwqA+gcva4WT1JtQx+Y4SYZCVaJIva5xC/H2HiTCojD+5m4MAwqA54kgrciaQtcOp1I28yg19VeE7Pvmblx8qX9Z/162nBPyiRuWv1GZtR1Zh4J8eGTf2BHPp+oVXZ3LNzwj4kb0+gPVUhWYC/L4EXqCsXZXMIJ17QfKUwmGDB5o/SxYvKvHLzzSkzRyVXMxBYQnovmTGoLC3AA3PQiBrh5OlrI558ioXYZBQ9jMwYo8wKP+Vkvhgi00AYVDs+NP6jARq3YGHOiaNBLWqX+7pO+uVDyY71739X7+zU9oHQfnSbK1nDPSUhHbU0w6ASk/zp9FnDKqd4ViyNNlZUk9j+BkHfVU0ecbfGSotBtRTA+InP9rakjUmWuPgy/f7GfiZhtAaBtWDhcBOAggD7gMIZCCAMCgPSQIAYVCej++4EQblOZHaWAQQBo0VD7xpUAK1FgZZp/o1szD7a183MnpuXZjU0ehYe+dv3fq/lqSRqs7XasbAj0RVvka8+s0ApY8aeZy9XHbn3WbVjkafMfBx908VqH0hqw9YrSFQvPwaBf9z0Rr5f/DBh1a0ZhT8GgF/H2mmQXHw5Yb2SQj5T3oxCei+ZY1BMeNPqzMS8B1E6LvrjMX18B/ous533AgDkclms8ZJXP2W0J6/Lw9hkC0O5IqbAMIg7vjhfZ0I+A6iWmHgp5j1K4B+VXloZO5Xt3sMfh8Dnfcdn9Kzti/0XLye73/kgXusSL9zn9ZI+H0MGn3GwD+VkMZdPGX99aEZAx9njfzf/cNmK0q/0eCFiRc48k+/6qiZhtD9JT+xEOhIAGHQkQavIRAgkLXjDFzeKRlhkCBBGCQcEAad3iIkdCMBhEE3wqfqeAjUShj4DkAEQqvFtRpdi/xCI06VI+uvU3q1Mwb+uXiVmzaDIv/ll66LTRhk5a/2+e/4Q+31XDXy/91/v2NFaa1I6KkV3Z+aGTjjtOl2nWYaVJ7fGVF+YiHQkQDCoCMNXkMgQEAfvDqd1hEqn7cIg2RDHnEJdZQ6X6nNGic/Ba96vHDK+lWArvcWYeCJcBwDAYRBDFHCx24nkLXD8Y7qOfXH16yzU9rbXvnSRqAaYWvEnTbyC3V4qk+r3f1vLPj2hTps+SG/0srV2oJly//Jsmrkq+vS2qN8Wa1vR0jAhTh5YeBH8vIjVK7Oh8oPXSdOWoOhkf+bv31bRZrV/gUliTsOQgJG+1yE6vXlcAyBnQQQBtwHEMhAIGuH44tCGHxsSBAGyZ0R6qARBv6dw3F3EkAYdCd96o6GgBcG2tP+4IMGlLRBz52vWfdDS9cIuyTTjgONCK9r33Pf73So/P6xRq3+/8aV8yxL796fNHvbkmVmVZ/8W/1EMlOhfQM0QteqddWrDwI9b696Lrn4Qiu3f/8DzQ4/cqhZP0Wu5+snT5pg55997nmzmiFRedOnTipJ1/P21y64ytIHDjzErJ/RsMQM/3ycQh1xaETvZwxUpWZIxFfp4jxm9ChL0kZPGqkrX9rMkPL531ZQuviGfh3Tx0/XiXtopkH5sBDoSED3E/sYdKTCawg4Ar7DUYeAMGgzUuq4EAbJltUIA/cG4jAqAgiDqMKFs91FwAuDSv3QyPjss063S7P+mqD2DbjmWzfadS9tfLnLqjUTof0Q9AbXTIAu9iNYTWXPOOMcy6IZhlB+zWR8+9YlZfPrOlk9dTH085+zpFA9oRG+ykmzPk6h8iqdMag0DvJTnBdeM9+S0mZCQvHy+xeofNlQeyTYQjMNuh4LgY4EdB8yY9CRCq8h4Aj4DsedTj1EGCw2RgiDXl3eK/pA9kIOYdAlNk7WmIDuQ4RBjcFSXHMR0Iis0lYNaP9uvtLrQvm1mPHFlzZaFn33/5khh9lxaMfBzZvfKymypaXFjrXGQCc1Mt6yNfkVP6WH8mum4fVf/4dl3bTpXbPD2tcihNqvdmzbtk1VmO3X7wCzaSPrkos6HPg4hcqT355LyF9V4a979bXXdcps7969zQ4edKjZtPJKLt5x4MvX+VA7dF7Wt79vnz52yt8Xyo+FQDkCCINyVEiDgCPgP3Dd6eBhpR1DsKD2E+pQEQblSfk4hTrUUAecFi9/HcKgfBxIjZsAwiDu+OE9BCAAAQhAoKYEJAz+HwAA//+1L6PeAAAW+UlEQVTt3XvwHeMdx3E//JEoDUoTZtzrFknkJiLuSqetSUjcVRO3jktdYsS16t64ZSpEg5a6DNoOghimg4k7HVX30tYkgiqGaaJMUUwa3/19Htmv33N295w953fO/t6/P37P7tndZ5/n9Ty7+93bOV1Llv4txx8CCCCAAAII9GmB+x540OrfRWDQp/sBlUcAAQQQQMAECAzoCAgggAACCCAQBAgMAgUDCCCAAAIIIEBgQB9AAAEEEEAAgSBAYBAoGEAAAQQQQAABAgP6AAIIIIAAAggEAQKDQMEAAggggAACCBAY0AcQQAABBBBAIAgQGAQKBhBAAAEEEECAwIA+gAACCCCAAAJBgMAgUDCAAAIIIIAAAgQG9AEEEEAAAQQQCAIEBoGCAQQQQAABBBAgMKAPIIAAAggggEAQIDAIFAwggAACCCCAAIEBfQABBBBAAAEEggCBQaBgAAEEEEAAAQQIDOgDCCCAAAIIIBAECAwCBQMIIIAAAgggQGBAH0AAAQQQQACBIEBgECgYQAABBBBAAAECA/oAAggggAACCAQBAoNAwQACCCCAAAIIEBjQBxBAAAEEEEAgCBAYBAoGEEAAAQQQQIDAgD6AAAIIIIAAAkGAwCBQMIAAAggggAACBAb0AQQQQAABBBAIAgQGgYIBBBBAAAEEECAwoA8ggAACCCCAQBAgMAgUDCCAAAIIIIAAgQF9AAEEEEAAAQSCAIFBoGAAAQQQQAABBAgM6AMIIIAAAgggEAQIDAIFAwgggAACCCBAYEAfQAABBBBAAIEgQGAQKBhAAAEEEEAAAQID+gACCCCAAAIIBAECg0DBAAIIIIAAAggQGNAHEEAAAQQQQCAIEBgECgYQQAABBBBAgMCAPoAAAggggAACQYDAIFAwgAACCCCAAAIEBvQBBBBAAAEEEAgCBAaBggEEEEAAAQQQIDCgDyCAAAIIIIBAECAwCBQMIIAAAggggACBAX0AAQQQQAABBIIAgUGgYAABBBBAAAEECAzoAwgggAACCCAQBAgMAgUDCCCAAAIIIEBgQB9AAAEEEEAAgSBAYBAoGEAAAQQQQAABAgP6AAIIIIAAAggEAQKDQMEAAggggAACCBAY0AcQQAABBBBAIAgQGAQKBhBAAAEEEECAwIA+gAACCCCAAAJBgMAgUDCAAAIIIIAAAgQG9AEEEEAAAQQQCAIEBoGCAQQQQAABBBAgMKAPIIAAAggggEAQIDAIFAwggAACCCCAAIEBfQABBBBAAAEEggCBQaBgAAEEEEAAAQQIDOgDCCCAAAIIIBAECAwCRbUGlixZYhU64qdTLR05YoSlQ7fYrHt8uKX9+/ezlH8IIIAAAgh8KUBgUNF+QGBQ0YalWggggECTBQgMmgzcW9krMNjhuz/ssQjLL7+8fb7rLjtaetQRh1u6xrdW73F+PkQAAQQQ6BsCBAYVbWcCg4o2LNVCAAEEmixAYNBk4N7KPiswiJVr/XXXsUljxoy2dNNNNrZ0m623snSVVVa2lH+tEVi0+ANb0WVXXJVa4dlnnJIaLzrSrHyLlqOvzf/xx59Ylct6tueFl162/ObcebelQ7cYbOleE8dbyr9EwDtN2jPxGTYk8cIpLUBgkPaozBiBQTWaslkH8GblWw315tWCwKB5trVyJjCopfP1aQQGXzepxCf1BgZZlZ/8o/1tlsMOnWzp8l1dWYt01PS333nXyrvPgYekyv3YvHtT460aaVZ5mpVvq1zafT2ff/GFFfHlV/5u6W+vv8nSp595rmbR9544wabvt89ES9caNLDm/NqBnzv9EptPzww1ekWp5ko7cKJ3OvP0k6wW39t15w6sTfOLLK+upQeS5P225q+TNbRAQM0Ze/iw3iIQGNQrV99yzTqANyvf+mpZvaUIDNqrTXWgUwBFYFC7feSVOzCY99CjluNDDz9i6U477mDpLjtt3+OazjznF/b5uWf9rOZ0TSxrvlg+faX8qudZ504XbanpSiv1t/z0NsOE3b9v43rbodSVtTCzdjtg6gDz3nvvpxRiZ5IzZyXPItx2x1ybP3alo2i+qZU3YcS733rLdbaWWD2bUIRSspTrpH2TK2r/XrQole/qq61m4yNHDLN0cfczJLErCScce5TNt8eE5O2iFVdYIZWfbk0s/iB5FqVfv+R7SVZbdUBqvr4+4p1WHZD4lPWsR9V8CQwqGtgQGNS3qfoDlHKJHWA1vVmpDjQEBs0SLjdftReBQbmujeZGYFBMsHBgUCx75u4tgbJvJQwY8E2rygXnnW3p0CGb91bVmrredgsMilZ2yuFH2yLzFyy0tLcCmqLl1o5Il3o79YrBE3/6s1X95NPPShFk1UcBxV1zk2dZLp11ZWp5Ln2nOBhpsoC2x9y3EppcHrIvSYDAoD5IAoP63BpdSjsiAgMCg0b7Ess3LqDtkcCgccu2yqFoYKBnBsaMHmX1GLzZppaOHj3S0o02XN/STn+GwCpR41/RwECv/X3ySfJ+ur93qemv/O0fttaPPvrI0u233cbSrHucOpOM3Urwl0j92xQ6U1WV11xzDQ1aGss3NVMPI7F6bbThBjb3eusl34fh74krK1+vq6+53iY9MO9hSy+efo6lG6y/rqXe1T5c5p8cXp2/wD59p/vtEs2icq291iD7KMtdyxVN/RUbPSNQ9HsFzj7/Ilv1awtft3SnHbaz9JDJB6aKpHoXfcZA7ffmP9+y/OQ1tPu9fv9sh7YLrdxP9+3pn3XQdL2lofWpXbR/Uf5lp94p1p/kou1Z24v6saZre1Y5R2w51Aab1a+0nlalBAatkm7xeggM6gPXDtAfYGOX5LWj0I7E73A0XTsSAoOkXXSgUGBCYJDurwQGaY9GxwgMigkSGBTz6pi5swKDQQO/bXU5vvup52232drGuyr2vQRFG6xoYKAduM50dS/4rX+9bau+tvv99Vg59N75KSceb7P4M46s8mgD1iX42Hr0ub+CkDcA0o51v4MOs6z80/bK36d6L3/qsUemJsXqlZppmRG5+vfOY/f0l1k0Nai3As4/J3lLquxvvvNXDNS+zfpeAd/+Weu77sZbzCOrX8rp6l/90ubP6ie+PVUOfcPg0cdNS7WDH9EVgxOnHmOTym4X7xTrT7Ht+d4/3m/lir09ovqo3mecltRXVxo0vVNSeXEroVNaLGc5CQxyQrnZ/A5Ok2NXDGI7EgKDRI7AIPmRMgIDAgPtSzohJTDohFaqo4wKDC685FJbepPvbGTp2LFjLNW91r5+hcDTNhoY6ExLZ9Q6g/jxgfvZqh557AlL77jrHks1n+6pjxub/CaFypVVHp3JP/v8i7ZI7Gl45ad7prqEn3UmqOV8ADR65HCbdOjBB1n6jZVWslT182ekulKhe9P+VsJFMy6z5XVGJo/YMwb6ilt/JqpAZHz392pYpkv/zZr961T++tyXS5/Xm8bKdVi3k39GoN71aDntwHXFSP3NByKxcqm/6grKX7q/mVHtp+nqp1qvD5Rj/VTz+ysCesbg5t/farPoLRr1q5kzyv3+Fe+U94qBr798dSXEe6m+sy+fYYNlX/lQ/s1O5cUVg2ZLtzh/AoP6wGM7OL8jVO7+gBnbkRAYpL+wiMBAPaixVDtwAoPajt6JwCCfF4FBbSem9hGBRgMDMWWdMdx+R/JreHpfPXamlLc8eedT+fLOH5vv7jm/s6xi37Dn65d1xuwDrKwzeX8vPyt/1dvfY9cZoD/D1vz1pr58ykdnznrLQL9eWu9T7f6AF6vP1GmnWxF0RUZXVo45+if2ub8XrodmpxyWfC9GvVcMtB7/jIk8tJ7xkw7QR5bef88cS/0zN6mZCox4p7yBgVaR1R99v8qqt/Jt11ReBAbt2kKUq6UCsQNh3isGKiyBQTrwyTpwExjU97qbduBZVwwIDB60TVNOBAbaU/Wcql8RGPTsw6d9TKCswCAWSIhT91R1ZqnP/XJ5y5N3Pq2n6PxaLm8ae1vA10/55Q0MYmeYWVcwtJ5m11vrUTnvnJs8S+KfKdF8PtWVo333Tn5dMetKgnbgOuDFrhhst0vyWwtaX+zAqOlKfbvoc9+OMdesAFn5+fLpGRP/zI3mL5p6p1j9fX11heeGa2bXXGXR/l4zszaYKC8CgzZoDIrQ+wKxHZzfEaqkfkeiz2PzazqBgSSS1DvGLt3qgOsvPRMY1P7ZZX/gjR0Y062y3HK+XTTd9+/YdkNgkHyTpdw6JSUw6JSWopwtEYjt4PyOUIXxO8689xbzrqfs+VTuvPlqfqVa7sWXXraP9E12+uY9zRf71cC8jrHAQOv3b1PoQKf1Z6U6w9Z8eQMLzV9vqoDwue63SF78a+Ko78Hw+eph1rm33+wn2bh24KqPv2Kgt1Z2231SavmYb2qmpSM+f0337Rhrl4fuT24p+WcYlI9Svx2pPfW9Fcpf/U7LxVL/zaK+Hj5/5ePLkXULTMupfL5feifN3+6pvLhi0O4tRflaIlB0A/c7EgKDpJkIDHrurgQGPbv47cgfuLVdEhj07Ff2pwQGZYuSX0cLaAeUN/LXBqQzNr9Di2HkXU/Z86k8efPVa4VXzP6NLXrbHXOVRc1U92Z1INTMsTMof2CIndF6b+XbaBpbX6P5Fl0+Vr/YJXk/v79iEGvnvFdI1H5lPQsT8/Dt77cjX89YPvrct6df3uev5bLKofl8GnOO9Xe/fLuNy4srBu3WMpSnVwSKbuDagAgM0s1FYJD2yDvm+5OWIzBIv1Ugl1hKYBCTyfe5+iGBQT4v5qq4AIFB+mEp7SAU+Kj59fT8jIvOs4/8PeSiT2n7MzW/Y9d6Y+2jp8b1K6GaP2+qb4T09ci7fNnzeQ8FWqqn1ufbx18xiD2sGfNVvkp9/vrcnwnH2sXPp+V96uvrz+iVf6tvJfhy+HJrXOXLe6VRy7VrqnYnMGjXFqJcLRUouoFrA9KBs+wdSd7y5J1PmHnn9/XT8gQGkmhO6g+UBAbvGjSBQXP6m89V2z2BgZdhvE8K5D1gCkcbUFUDA3+A0lPyf7jpWiOIfTPdzFlX2XT/TELsDNKvJ3ZGG2sfnUnrAKr2aVWqcj3x5FOpVe41cXxqPO9I7N6+fzbA9z9/xUDr868rxm5NaH6ledtR9a/3jNm3f94AW+XMSr1TLP96y9Fo/bPK3+rp8iIwaLU862tLgaIbuDYgAoN0c+Y9oGgpv0MmMFhoNP6hPwID9Zhiad7t1PfDWADh1150v+GXb7dxeREYtFvLUJ5eESi6gWsDatfAIPYeed566sCkM9isHaXeYthpt57PlPNeMYid0Sr/SftOtv6h7/A/4dijbDzrDF333Oc9+IjNP3zL5KuIG73S4PuBOm+9VzK8u27d+F8d9OuNXTHw+WV5xZxVL9+OefuTlvdpvQdkn09s3DvF+nG95Wi0/rFy99bn8iIw6K0WYL1tJVB0A9cGRGCQNKMOKAQGiQeBQfph1tjGXu8BOZaf/zzvdlpvOYruN3z52m1cXgQG7dYylKdXBIpu4NqAFBhknYmpUnnXk3c+HZBjZ9Ljthljq9bT9++9976NZ90T9vXTmfXMGRfY8qussrKlOgO/4sprbFz/dEav8diVAP/rdFrPheefZYv269fPUv2aoy+X8tc31e05YffU/HI89Yxz7HNdAdH8h0w+UFk0lPoDi57JmHLQ/pavrlCst946Nv7Z/z6z9NX5CyyVo382I+bmHWJXDPyvXdrKlv7T/EccfrB99NrCNyy98JKZlvr2sw+X/uOKgSSSVP0ra3tKL9W+Y+pXBAbt20aUrIUCRTdwbUAEBsmleQKDi6y36iuOCQy4YtDC3Vdpq9J+jcCgNFIy6mSBRgMDnYGdfcYpNRnyrifvfFqZNmgFKvpcqR7q03jWGU7su/a1vE91ILzh2tk2Sb8ueO31N6Vm9U5Z6/Hz6wpJ0W9kVCFi9+w1vd5U5fJXbormJ0ddadhjQvLriP57Fnx7eyetV+WadsrP7aOnn3lOk3pMtf5TT5pq008+Pblyo5m5YiCJJC26naaXbr8x9SsCg/ZrG0rUCwJFN3BtQDoQx3bMvip515N3PuXvy6PPlRIYJBIEBgQGX/YE/UiTtg9/Kyj2kKLmV1p0O9Vy7ZpqP0Jg0K4tRLlaKqCn1i+7InkPXyuPXQF4oftXBufcmfyK3NAtBtsieZ+Oz1pP0fLozFD3qlV+pfrVuU8+/dQ+ylq/ltMZ/bPdvwp43wPzbNKqAwZYOmarUZaO6H7KX99voOUeffxJZWXpoEEDLR02JPHSRN37n7/gNX1Uc37NpOUeeewJ++j1N97UJEvVLv4evz8DTy1UwojaT+2hX1OMZT1ubPIsyC4772CzZJWvaP9T/9CvYr766nxbz38+/NDSUSOHWzp4800tff31xFFvNehKgv+1R9Uzb3+yzJf5p2cg5DNpz+StFt8/llmk0KB3iuVfbzkarX+hyrRgZgKDFiCzis4RKLqB+x2ODkAEBsnDggQGH1jnJzCovQ+o94BcO9evpvrtlMDgK5uehggMelLhMwQQQKCCArpioLchdGUnVlUdIHSrLO/Pisfy4/POEFC7cyuhM9qLUiKAAAJ1CxAY1E3XpxYkMOhTzU1lEUCgLwroUv2ls6606utZAb09ou+HkI1uqU2ddpp9pGc4Lp6efA/EuLFbaVbSCgoQGFSwUakSAgggsKwAgcGyGgxnCRAYZAkxHQEEEKiIgP+GSV05GDlimNVQb5n4b15s1uudFWGtXDUIDCrXpFQIAQQQ6FmAwKBnFz5NCxAYpD0YQwABBCov4AOEWIX1WxL77zPJZsl6iyGWD593lgCBQWe1F6VFAAEEGhYgMGiYsNIZEBhUunmpHAIIIJAtoNcY9aub+hXOrG9ezM6ZOTpRgMCgE1uNMiOAAAIlChAYlIhZgawIDCrQiFQBAQQQQACBsgQIDMqSJB8EEEAAAQQqIEBgUIFGpAoIIIAAAgiUJUBgUJYk+SCAAAIIIFABAQKDCjQiVUAAAQQQQKAsAQKDsiTJBwEEEEAAgQoIEBhUoBGpAgIIIIAAAmUJEBiUJUk+CCCAAAIIVECAwKACjUgVEEAAAQQQKEuAwKAsSfJBAAEEEECgAgIEBhVoRKqAAAIIIIBAWQIEBmVJkg8CCCCAAAIVECAwqEAjUgUEEEAAAQTKEiAwKEuSfBBAAAEEEKiAAIFBBRqRKiCAAAIIIFCWAIFBWZLkgwACCCCAQAUECAwq0IhUAQEEEEAAgbIECAzKkiQfBBBAAAEEKiBAYFCBRqQKCCCAAAIIlCVAYFCWJPkggAACCCBQAQECgwo0IlVAAAEEEECgLAECg7IkyQcBBBBAAIEKCBAYVKARqQICCCCAAAJlCRAYlCVJPggggAACCFRAgMCgAo1IFRBAAAEEEChLgMCgLEnyQQABBBBAoAICBAYVaESqgAACCCCAQFkC1914i2XVtWTpX1mZkg8CCCCAAAIIdKYAgUFnthulRgABBBBAoCkCB0050vLlikFTeMkUAQQQQACBzhIIgcFnn39utxJWXGGFzqoBpUUAAQQQQACBhgUWLf7A8hg/6QBLuwgMGjYlAwQQQAABBDpW4GuBweNPPmVXDMaN3apjK0XBEUAAAQQQQKA+Ab2mOP3CGZZBF4FBfZAshQACCCCAQBUEvhYYbLvzD+yKwezLk0hh2JDBVagndUAAAQQQQACBGgIvvPSyTT36uGmWfvzhIku7CAxqqDEJAQQQQACBigpEA4NRY8bZFYM1B65tVd9374mWjho53NKNN9rQ0v79+1nKPwQQQAABBBDoPIH5CxZaoZ97/kVLL511paW6UvDfjxbbeBeBgTnwDwEEEEAAgUoL5A0M/g+o6wdnYW7EOAAAAABJRU5ErkJggg==;clipPath=inset(0.28% 0.67% 4.8% 1%);strokeWidth=2;" parent="LqSG0E5mVGwXw703kI9X-112" vertex="1">
          <mxGeometry x="461" y="5" width="194" height="110.49" as="geometry" />
        </mxCell>
        <mxCell id="GkfGt3xmt1NCqEzGQs3M-29" style="edgeStyle=orthogonalEdgeStyle;rounded=0;orthogonalLoop=1;jettySize=auto;html=1;exitX=0.5;exitY=0;exitDx=0;exitDy=0;entryX=0.5;entryY=1;entryDx=0;entryDy=0;fontSize=11;" parent="dNxyNK7c78bLwvsdeMH5-19" source="GkfGt3xmt1NCqEzGQs3M-26" target="GkfGt3xmt1NCqEzGQs3M-35" edge="1">
          <mxGeometry relative="1" as="geometry">
            <Array as="points">
              <mxPoint x="176" y="380" />
              <mxPoint x="176" y="380" />
            </Array>
          </mxGeometry>
        </mxCell>
        <mxCell id="GkfGt3xmt1NCqEzGQs3M-44" style="edgeStyle=orthogonalEdgeStyle;rounded=0;orthogonalLoop=1;jettySize=auto;html=1;fontSize=11;exitX=0.75;exitY=1;exitDx=0;exitDy=0;" parent="dNxyNK7c78bLwvsdeMH5-19" source="LqSG0E5mVGwXw703kI9X-48" target="GkfGt3xmt1NCqEzGQs3M-35" edge="1">
          <mxGeometry relative="1" as="geometry">
            <mxPoint x="226" y="200" as="sourcePoint" />
            <Array as="points">
              <mxPoint x="194" y="250" />
              <mxPoint x="194" y="250" />
            </Array>
          </mxGeometry>
        </mxCell>
        <mxCell id="GkfGt3xmt1NCqEzGQs3M-46" style="edgeStyle=orthogonalEdgeStyle;rounded=0;orthogonalLoop=1;jettySize=auto;html=1;fontSize=11;entryX=0.25;entryY=0;entryDx=0;entryDy=0;" parent="dNxyNK7c78bLwvsdeMH5-19" target="GkfGt3xmt1NCqEzGQs3M-45" edge="1">
          <mxGeometry relative="1" as="geometry">
            <mxPoint x="280" y="320" as="sourcePoint" />
            <mxPoint x="536" y="400" as="targetPoint" />
            <Array as="points">
              <mxPoint x="280" y="320" />
              <mxPoint x="280" y="370" />
              <mxPoint x="434" y="370" />
            </Array>
          </mxGeometry>
        </mxCell>
        <mxCell id="GkfGt3xmt1NCqEzGQs3M-47" style="edgeStyle=orthogonalEdgeStyle;rounded=0;orthogonalLoop=1;jettySize=auto;html=1;exitX=0.25;exitY=1;exitDx=0;exitDy=0;entryX=0.25;entryY=0;entryDx=0;entryDy=0;fontSize=11;dashed=1;" parent="dNxyNK7c78bLwvsdeMH5-19" source="LqSG0E5mVGwXw703kI9X-99" target="LqSG0E5mVGwXw703kI9X-103" edge="1">
          <mxGeometry relative="1" as="geometry" />
        </mxCell>
        <mxCell id="GkfGt3xmt1NCqEzGQs3M-48" style="edgeStyle=orthogonalEdgeStyle;rounded=0;orthogonalLoop=1;jettySize=auto;html=1;fontSize=11;entryX=0.5;entryY=1;entryDx=0;entryDy=0;" parent="dNxyNK7c78bLwvsdeMH5-19" target="GkfGt3xmt1NCqEzGQs3M-33" edge="1">
          <mxGeometry relative="1" as="geometry">
            <mxPoint x="569" y="280" as="targetPoint" />
            <Array as="points">
              <mxPoint x="451" y="350" />
              <mxPoint x="451" y="350" />
            </Array>
            <mxPoint x="451" y="380" as="sourcePoint" />
          </mxGeometry>
        </mxCell>
        <mxCell id="GkfGt3xmt1NCqEzGQs3M-101" style="edgeStyle=orthogonalEdgeStyle;rounded=0;orthogonalLoop=1;jettySize=auto;html=1;exitX=0.25;exitY=0;exitDx=0;exitDy=0;entryX=0.25;entryY=1;entryDx=0;entryDy=0;fontSize=10;strokeColor=default;dashed=1;" parent="dNxyNK7c78bLwvsdeMH5-19" source="GkfGt3xmt1NCqEzGQs3M-35" target="LqSG0E5mVGwXw703kI9X-48" edge="1">
          <mxGeometry relative="1" as="geometry" />
        </mxCell>
        <mxCell id="GkfGt3xmt1NCqEzGQs3M-103" style="edgeStyle=orthogonalEdgeStyle;rounded=0;orthogonalLoop=1;jettySize=auto;html=1;exitX=0.5;exitY=0;exitDx=0;exitDy=0;entryX=0.5;entryY=1;entryDx=0;entryDy=0;fontSize=10;strokeColor=default;" parent="dNxyNK7c78bLwvsdeMH5-19" source="LqSG0E5mVGwXw703kI9X-151" target="LqSG0E5mVGwXw703kI9X-77" edge="1">
          <mxGeometry relative="1" as="geometry">
            <Array as="points">
              <mxPoint x="516" y="130" />
              <mxPoint x="516" y="130" />
            </Array>
          </mxGeometry>
        </mxCell>
        <mxCell id="GkfGt3xmt1NCqEzGQs3M-104" style="edgeStyle=orthogonalEdgeStyle;rounded=0;orthogonalLoop=1;jettySize=auto;html=1;entryX=0.5;entryY=0;entryDx=0;entryDy=0;fontSize=10;strokeColor=default;exitX=0.5;exitY=1;exitDx=0;exitDy=0;" parent="dNxyNK7c78bLwvsdeMH5-19" source="GkfGt3xmt1NCqEzGQs3M-102" edge="1" target="GkfGt3xmt1NCqEzGQs3M-107">
          <mxGeometry relative="1" as="geometry">
            <mxPoint x="760" y="180" as="targetPoint" />
          </mxGeometry>
        </mxCell>
        <mxCell id="GkfGt3xmt1NCqEzGQs3M-105" style="edgeStyle=orthogonalEdgeStyle;rounded=0;orthogonalLoop=1;jettySize=auto;html=1;fontSize=10;strokeColor=default;entryX=0;entryY=0.5;entryDx=0;entryDy=0;" parent="dNxyNK7c78bLwvsdeMH5-19" source="LqSG0E5mVGwXw703kI9X-77" edge="1" target="GkfGt3xmt1NCqEzGQs3M-107">
          <mxGeometry relative="1" as="geometry">
            <mxPoint x="601" y="220" as="targetPoint" />
            <Array as="points">
              <mxPoint x="581" y="55" />
              <mxPoint x="581" y="170" />
            </Array>
          </mxGeometry>
        </mxCell>
        <mxCell id="GkfGt3xmt1NCqEzGQs3M-106" value="&lt;font style=&quot;font-size: 9px&quot;&gt;[false]&lt;/font&gt;" style="edgeLabel;html=1;align=center;verticalAlign=middle;resizable=0;points=[];fontSize=10;" parent="GkfGt3xmt1NCqEzGQs3M-105" vertex="1" connectable="0">
          <mxGeometry x="-0.4166" y="3" relative="1" as="geometry">
            <mxPoint x="-24" as="offset" />
          </mxGeometry>
        </mxCell>
        <mxCell id="8j3LYYLOb3ijxoXuSf2X-3" value="" style="edgeStyle=orthogonalEdgeStyle;rounded=0;orthogonalLoop=1;jettySize=auto;html=1;" edge="1" parent="dNxyNK7c78bLwvsdeMH5-19" source="LqSG0E5mVGwXw703kI9X-99" target="GkfGt3xmt1NCqEzGQs3M-25">
          <mxGeometry relative="1" as="geometry" />
        </mxCell>
        <mxCell id="8j3LYYLOb3ijxoXuSf2X-4" value="" style="edgeStyle=orthogonalEdgeStyle;rounded=0;orthogonalLoop=1;jettySize=auto;html=1;exitX=0.5;exitY=0;exitDx=0;exitDy=0;" edge="1" parent="dNxyNK7c78bLwvsdeMH5-19" source="GkfGt3xmt1NCqEzGQs3M-45" target="GkfGt3xmt1NCqEzGQs3M-33">
          <mxGeometry relative="1" as="geometry">
            <mxPoint x="451" y="380" as="sourcePoint" />
          </mxGeometry>
        </mxCell>
      </root>
    </mxGraphModel>
  </diagram>
</mxfile>
